<svg width="15" height="17" viewBox="0 0 15 17" fill="none" xmlns="http://www.w3.org/2000/svg">
<path d="M1.67097 0.256516C1.4835 0.085125 1.22988 -0.00541447 0.970527 0.000182142C0.710907 0.00604787 0.466817 0.10758 0.287321 0.287077C0.107824 0.466573 0.00629201 0.710663 0.000426283 0.970283C-0.00517033 1.22963 0.0853691 1.48326 0.25676 1.67073C0.384201 1.80996 0.511642 1.94918 0.639083 2.08841C2.93302 4.59447 5.22695 7.10054 7.52088 9.60661C7.64833 9.74583 7.77577 9.88506 7.90321 10.0243C8.17191 10.3182 8.54239 10.4873 8.94043 10.4871C9.33804 10.4873 9.73062 10.3182 10.0245 10.0243C10.3184 9.73037 10.4875 9.3378 10.4873 8.94019C10.4875 8.54215 10.3184 8.17166 10.0245 7.90296C9.8853 7.77552 9.74608 7.64808 9.60685 7.52064C7.10078 5.22671 4.59472 2.93277 2.08865 0.638839C1.94943 0.511398 1.8102 0.383957 1.67097 0.256516Z" fill="white" fill-opacity="0.44"/>
<path d="M13.0173 12.4285C13.0534 12.4417 13.1527 12.4869 13.3044 12.6345C13.2851 12.6156 13.357 12.6767 13.4119 12.9578C13.4454 13.1296 13.4615 13.3393 13.4617 13.5818C13.2113 13.4237 12.9402 13.2759 12.6414 13.1248C12.5852 13.0964 12.5567 13.0735 12.5457 13.0632C12.54 13.058 12.5372 13.0542 12.5359 13.0525C12.5347 13.051 12.5342 13.05 12.5339 13.0496C12.5339 13.0495 12.5317 13.0457 12.5291 13.0349C12.5262 13.0233 12.5223 13.0023 12.5222 12.9714C12.5222 12.9051 12.5385 12.8195 12.573 12.7351C12.6102 12.6442 12.6429 12.616 12.6228 12.6355C12.7915 12.4713 12.922 12.4253 12.9656 12.4197C12.9743 12.4186 12.9863 12.4171 13.0173 12.4285Z" stroke="white" stroke-width="3"/>
</svg>
