<svg width="14" height="14" viewBox="0 0 14 14" fill="none" xmlns="http://www.w3.org/2000/svg">
<path d="M11.5 3C11.7761 3 12 3.22386 12 3.5C12 4.36742 12.3735 5.26867 12.8594 5.96289C13.1002 6.30694 13.3567 6.58286 13.585 6.7666C13.6991 6.85841 13.7986 6.92122 13.8779 6.95898C13.917 6.97756 13.9476 6.98821 13.9697 6.99414C13.992 7.00012 14.0015 7 14 7V8C13.6226 8 13.2519 7.78238 12.958 7.5459C12.6427 7.29217 12.324 6.94279 12.04 6.53711C12.0261 6.51719 12.0138 6.49585 12 6.47559V12C12 12.8284 10.8807 13.5 9.5 13.5C8.11929 13.5 7 12.8284 7 12C7 11.1716 8.11929 10.5 9.5 10.5C10.0631 10.5 10.582 10.6133 11 10.8018V3.5C11 3.22386 11.2239 3 11.5 3Z" fill="white" fill-opacity="0.44"/>
<path d="M4.5 0C4.77614 0 5 0.223858 5 0.5C5 1.36742 5.37351 2.26867 5.85938 2.96289C6.10021 3.30694 6.35666 3.58286 6.58496 3.7666C6.69907 3.85841 6.79862 3.92122 6.87793 3.95898C6.91696 3.97756 6.94763 3.98821 6.96973 3.99414C6.99201 4.00012 7.00149 4 7 4V5C6.62263 5 6.25192 4.78238 5.95801 4.5459C5.64271 4.29217 5.32403 3.94279 5.04004 3.53711C5.0261 3.51719 5.01383 3.49585 5 3.47559V9C5 9.82843 3.88071 10.5 2.5 10.5C1.11929 10.5 0 9.82843 0 9C0 8.17157 1.11929 7.5 2.5 7.5C3.06312 7.5 3.58205 7.61326 4 7.80176V0.5C4 0.223858 4.22386 0 4.5 0Z" fill="white"/>
</svg>
