<svg width="15" height="19" viewBox="0 0 15 19" fill="none" xmlns="http://www.w3.org/2000/svg">
<path d="M12.5 18.5H2.5L4.5 15C4.5 15 6.10928 15.4636 7.5 15C9.00001 14.5001 10.5 15 10.5 15L12.5 18.5Z" fill="white" fill-opacity="0.44"/>
<path d="M5.5 9V13L2.5 18.5H12.5L9.5 13V9" stroke="white"/>
<path d="M4.11608 1.31278C4.22827 0.929149 4.77173 0.929149 4.88392 1.31278L5.45677 3.27159C5.49506 3.40254 5.59746 3.50494 5.72841 3.54323L7.68722 4.11608C8.07085 4.22827 8.07085 4.77173 7.68722 4.88392L5.72841 5.45677C5.59746 5.49506 5.49506 5.59746 5.45677 5.72841L4.88392 7.68722C4.77173 8.07085 4.22827 8.07085 4.11608 7.68722L3.54323 5.72841C3.50494 5.59746 3.40254 5.49506 3.27159 5.45677L1.31278 4.88392C0.929149 4.77173 0.929149 4.22827 1.31278 4.11608L3.27159 3.54323C3.40254 3.50494 3.50494 3.40254 3.54323 3.27159L4.11608 1.31278Z" fill="white"/>
<path d="M11.1161 4.31278C11.2283 3.92915 11.7717 3.92915 11.8839 4.31278L12.2305 5.49786C12.2688 5.62881 12.3712 5.73121 12.5021 5.76951L13.6872 6.11608C14.0709 6.22827 14.0709 6.77173 13.6872 6.88392L12.5021 7.23049C12.3712 7.26879 12.2688 7.37119 12.2305 7.50214L11.8839 8.68722C11.7717 9.07085 11.2283 9.07085 11.1161 8.68722L10.7695 7.50214C10.7312 7.37119 10.6288 7.26879 10.4979 7.23049L9.31278 6.88392C8.92915 6.77173 8.92915 6.22827 9.31278 6.11608L10.4979 5.76951C10.6288 5.73121 10.7312 5.62881 10.7695 5.49786L11.1161 4.31278Z" fill="white" fill-opacity="0.44"/>
</svg>
