<svg width="25" height="22" viewBox="0 0 25 22" fill="none" xmlns="http://www.w3.org/2000/svg">
<path d="M8.11409 4.0355C8.1451 3.45509 8.90071 3.25346 9.21677 3.74125L11.3337 7.00843C11.4751 7.22658 11.7408 7.3289 11.992 7.26188L15.7534 6.25814C16.315 6.10828 16.7403 6.76459 16.374 7.21592L13.9209 10.2389C13.7571 10.4407 13.7419 10.7251 13.8833 10.9432L16.0003 14.2104C16.3163 14.6982 15.8235 15.3055 15.2811 15.0966L11.6481 13.6977C11.4055 13.6043 11.1304 13.6777 10.9666 13.8796L8.51347 16.9026C8.14723 17.3539 7.41741 17.0729 7.44843 16.4925L7.65616 12.6049C7.67003 12.3454 7.51519 12.1064 7.27261 12.013L3.63955 10.6141C3.09713 10.4053 3.13886 9.62433 3.70045 9.47447L7.4619 8.47073C7.71305 8.40371 7.89248 8.18259 7.90635 7.92303L8.11409 4.0355Z" fill="white"/>
<path d="M16.9131 8.0562C17.2119 7.5577 17.9741 7.7329 18.0253 8.31187L18.2723 11.1042C18.2952 11.3632 18.4822 11.5779 18.7356 11.6361L21.4676 12.2641C22.034 12.3943 22.1029 13.1733 21.5681 13.4009L18.9888 14.4987C18.7496 14.6005 18.6032 14.8447 18.6261 15.1037L18.873 17.896C18.9242 18.475 18.2047 18.7813 17.8229 18.343L15.9818 16.2291C15.8111 16.0331 15.5336 15.9693 15.2944 16.0711L12.715 17.1688C12.1802 17.3965 11.6666 16.8067 11.9655 16.3082L13.4069 13.904C13.5406 13.681 13.5155 13.3974 13.3448 13.2014L11.5037 11.0875C11.1219 10.6492 11.5241 9.97847 12.0905 10.1087L14.8226 10.7367C15.0759 10.7949 15.3379 10.6834 15.4716 10.4604L16.9131 8.0562Z" fill="white" fill-opacity="0.44"/>
</svg>
